<?xml version="1.0" encoding="utf-8"?>
<!-- Generator: Adobe Illustrator 24.3.0, SVG Export Plug-In . SVG Version: 6.00 Build 0)  -->
<svg version="1.1" id="Layer_1" xmlns="http://www.w3.org/2000/svg" xmlns:xlink="http://www.w3.org/1999/xlink" x="0px" y="0px"
	 viewBox="0 0 1994 575" style="enable-background:new 0 0 1994 575;" xml:space="preserve">
<style type="text/css">
	.st0{fill:#3999D5;}
</style>
<g>
	<path class="st0" d="M783.1,306.8c13-11.2,26-22.5,39-33.6c36-30.8,72.1-61.5,108.1-92.3c41.9-35.9,83.7-72,125.7-107.7
		c38.2-32.5,82-54.3,131.2-64.3c31.7-6.5,63.5-6.7,95.6-2.3c29.9,4.1,58.4,12.3,85.3,25.6c37.8,18.8,70.3,44.2,97.1,77.3
		c27.1,33.5,45.8,70.8,55.9,112.6c13.8,57.3,10.6,113.7-10.4,169c-26.1,68.8-72.4,119.9-137.4,153.5
		c-40.4,20.9-83.8,31.5-129.8,31.2c-72.8-0.5-136.3-25.2-191.1-72.6c-13.2-11.4-25.6-24-34.9-39c-12.1-19.4-11.9-39.8,1.9-57.4
		c17.2-21.8,39-39.6,63.1-53.4c19.3-11,44.6-5,60,11.1c14.1,14.9,28.3,29.5,47.6,38c47,20.7,90.5,14.9,131.3-15.9
		c54.8-41.3,65.2-130.7,9.7-185.5c-21.9-21.7-48.7-33.7-80.1-35.7c-34.6-2.2-68,4.2-101.1,12.7c-60.8,15.7-118.9,39.2-177.2,62.2
		c-50.1,19.8-100,40.1-151.1,57.2c-12.4,4.1-25.1,7.6-37.6,11.4C783.7,308.2,783.4,307.5,783.1,306.8z"/>
	<path class="st0" d="M1092.4,271c-13.2,11.3-26.4,22.7-39.7,34c-41.1,35.3-81.9,70.8-123.3,105.7c-42.4,35.8-83.3,73.3-127.1,107.3
		c-41.6,32.2-89.4,50.2-141.6,55.3c-80,7.7-151.1-14.5-213-66c-31.1-25.9-55.9-57-73.3-93.4c-16.6-34.7-26.4-71.4-28.2-110.4
		c-2.3-49.3,7-96.1,28.3-140.2c22.9-47.6,57.4-85.4,101.6-114.6c31.3-20.6,65.5-33.9,101.9-41c38.7-7.6,77.5-6.8,116.1,2.1
		c63.1,14.5,115.4,46.4,157.1,95.8c15.2,18,18.2,37.8,8.6,59.5c-3,6.8-7.7,12.4-13.1,17.2c-14,12.2-27.9,24.5-42.5,35.9
		c-24,18.9-53.4,16.2-73.9-6.6c-16.3-18.2-34.9-32.7-58.1-40.9c-30.8-11-60.7-8-90.5,4c-50.5,20.3-84.3,79.9-72.4,138.2
		c12.1,59.4,62.1,100.2,125.2,100.7c38.7,0.3,75.8-8.5,112.6-19.2c58-16.9,113.8-39.6,169.7-62.1c51.7-20.8,103.6-41.1,156.7-58
		c5.9-1.9,11.9-3.2,17.8-4.8C1091.7,270,1092.1,270.5,1092.4,271z"/>
	<path class="st0" d="M1994.9,143.8c0-44.2-0.1-88.5,0.1-132.7c0-6.2-0.9-9.1-8.3-9c-88.7,1.1-177.4-1.6-266.1,1.6
		c-31.6,1.2-62.5,6.1-92.5,16.5c-50.2,17.4-83.4,51.7-102.4,100.7c-1.9,5-1.5,9,1.1,13.7c5.1,9.1,10.3,18.3,14.4,28
		c21.7,51.6,30.9,105.2,24.6,161c-6,52.9-23.3,101.6-54.3,145.1c-3,4.2-4.1,8.4-4.1,13.5c0.2,28,0.4,56.1,0,84.1
		c-0.1,7.2,1.9,9.1,9,9c44.8-0.3,89.6-0.1,134.3-0.1c16.4,0,16.5,0,16.5-16.3c0-49.4,0.2-98.7-0.1-148.1c0-7.5,2.1-9.4,9.5-9.4
		c59.1,0.3,118.1,0.1,177.2,0.1c8.4,0,16.7-0.1,25-1.5c33.4-5.5,63-18.2,85.6-44.4c21.2-24.6,29.9-54,30.3-85.8
		C1995.3,228,1994.8,185.9,1994.9,143.8L1994.9,143.8z M1836.1,225.6c-0.6,22.9-16.7,39.4-39.1,42.3c-21.5,2.8-43.1,0.7-60,1.4
		c-22.9,0-41.2-0.2-59.5,0.1c-6.3,0.1-8.7-2.1-8.4-8.5c1.2-20.7-1.9-41.5,1.9-62.1c6.5-34.9,25.9-54.5,63.4-61.5
		c9.6-1.8,19.1-2.6,28.9-2.5c22.1,0.2,44.2,0.1,66.3,0c4.3,0,7.1,0.4,7,5.9C1836.3,169.1,1836.8,197.4,1836.1,225.6z"/>
	<path class="st0" d="M458.9,571.9c-8.7,0-17.1,0-25.4,0c-69.1,0-138.1,0.5-207.2-0.2c-42.8-0.4-84.9-6.9-123.8-25.8
		c-40.2-19.5-67.2-51.3-81.9-93.5C9,418.9,4.2,384.2,4.1,349.1c-0.3-112.2,0-224.4-0.3-336.6c0-8.4,2.5-10.4,10.6-10.3
		c46.1,0.4,92.3,0.3,138.4,0c7.5-0.1,9.5,2.2,9.5,9.6c-0.2,111.1,0,222.3,0,333.4c0,14.7,2.3,29,6.8,42.9
		c10.1,31.3,33.6,45.1,64.5,49.5c34.4,4.9,68.9,2,103.4,2.6c6.5,0.1,9.5,1.8,12.1,8.2c13.3,33,34.4,60.7,60.7,84.6
		c14.2,12.9,29.6,24.1,45.7,34.5C456.8,568.3,458.6,568.7,458.9,571.9z"/>
</g>
</svg>
